<svg width="513" height="513" viewBox="0 0 513 513" fill="none" xmlns="http://www.w3.org/2000/svg">
<circle cx="256.5" cy="256.5" r="256.5" fill="#005A9C"/>
<path d="M198.152 303.812L197.957 314.555C197.957 324.19 201.766 329.008 209.383 329.008C215.568 329.008 220.841 324.906 225.203 316.703C229.37 308.956 232.365 301.306 234.188 293.754C237.443 280.277 239.721 269.372 241.023 261.039L251.766 204.789C252.156 202.901 253.914 201.501 257.039 200.59C260.229 199.678 263.029 199.223 265.438 199.223L274.031 199.027C273.315 204.105 271.85 212.439 269.637 224.027C267.423 235.551 265.47 244.73 263.777 251.566H266.219C282.365 251.566 294.897 247.888 303.816 240.531C312.215 233.5 316.414 225.557 316.414 216.703C316.414 207.849 312.378 200.362 304.305 194.242C296.232 188.057 284.806 184.965 270.027 184.965C262.28 184.965 254.012 186.169 245.223 188.578C236.499 190.922 228.849 194.405 222.273 199.027C215.698 203.65 212.41 208.533 212.41 213.676C212.41 218.754 213.745 222.562 216.414 225.102C219.083 227.576 223.087 229.822 228.426 231.84C228.426 238.611 227.547 243.786 225.789 247.367C214.982 244.047 206.779 238.448 201.18 230.57C198.12 226.208 196.59 221.098 196.59 215.238C196.59 209.379 198.901 203.617 203.523 197.953C208.211 192.289 214.363 187.667 221.98 184.086C237.801 176.534 255.802 172.758 275.984 172.758C301.635 172.758 320.125 178.552 331.453 190.141C337.964 196.846 341.219 204.659 341.219 213.578C341.219 219.633 339.656 225.622 336.531 231.547C333.406 237.406 329.077 242.712 323.543 247.465C318.074 252.217 311.141 256.059 302.742 258.988C294.344 261.918 285.294 263.383 275.594 263.383C271.167 263.383 266.577 262.992 261.824 262.211C256.941 295.284 247.143 317.68 232.43 329.398C224.812 335.518 216.805 338.578 208.406 338.578C200.073 338.578 193.107 336.592 187.508 332.621C181.844 328.65 179.012 323.051 179.012 315.824C179.012 307.816 185.392 303.812 198.152 303.812ZM323.205 309.477C323.205 312.341 321.513 315.466 318.127 318.852C314.742 322.172 311.291 323.832 307.776 323.832C301.786 323.832 298.791 321.293 298.791 316.215C298.791 312.634 300.126 309.184 302.795 305.863C305.464 302.478 308.622 300.785 312.268 300.785C315.979 300.785 318.713 301.501 320.471 302.934C322.294 304.366 323.205 306.547 323.205 309.477Z" fill="white"/>
</svg>
