<svg width="265" height="99" viewBox="0 0 265 99" fill="none" xmlns="http://www.w3.org/2000/svg">
<path d="M10.0762 66.4062L9.97852 71.7773C9.97852 76.5951 11.8828 79.0039 15.6914 79.0039C18.7839 79.0039 21.4206 76.9531 23.6016 72.8516C25.6849 68.9779 27.1823 65.153 28.0938 61.377C29.7214 54.6387 30.8607 49.1862 31.5117 45.0195L36.8828 16.8945C37.0781 15.9505 37.957 15.2507 39.5195 14.7949C41.1146 14.3392 42.5143 14.1113 43.7188 14.1113L48.0156 14.0137C47.6576 16.5527 46.9251 20.7194 45.8184 26.5137C44.7116 32.2754 43.735 36.8652 42.8887 40.2832H44.1094C52.1823 40.2832 58.4486 38.444 62.9082 34.7656C67.1074 31.25 69.207 27.2786 69.207 22.8516C69.207 18.4245 67.1888 14.681 63.1523 11.6211C59.1159 8.52865 53.403 6.98242 46.0137 6.98242C42.14 6.98242 38.0059 7.58464 33.6113 8.78906C29.2493 9.96094 25.4245 11.7025 22.1367 14.0137C18.849 16.3249 17.2051 18.7663 17.2051 21.3379C17.2051 23.877 17.8724 25.7812 19.207 27.0508C20.5417 28.2878 22.5436 29.4108 25.2129 30.4199C25.2129 33.8053 24.7734 36.3932 23.8945 38.1836C18.4909 36.5234 14.3893 33.724 11.5898 29.7852C10.0599 27.6042 9.29492 25.0488 9.29492 22.1191C9.29492 19.1895 10.4505 16.3086 12.7617 13.4766C15.1055 10.6445 18.1816 8.33333 21.9902 6.54297C29.9004 2.76693 38.901 0.878906 48.9922 0.878906C61.8177 0.878906 71.0625 3.77604 76.7266 9.57031C79.9818 12.9232 81.6094 16.8294 81.6094 21.2891C81.6094 24.3164 80.8281 27.3112 79.2656 30.2734C77.7031 33.2031 75.5384 35.8561 72.7715 38.2324C70.0371 40.6087 66.5703 42.5293 62.3711 43.9941C58.1719 45.459 53.6471 46.1914 48.7969 46.1914C46.5833 46.1914 44.2884 45.9961 41.9121 45.6055C39.4707 62.1419 34.5716 73.3398 27.2148 79.1992C23.4062 82.2591 19.4023 83.7891 15.2031 83.7891C11.0365 83.7891 7.55339 82.7962 4.75391 80.8105C1.92188 78.8249 0.505859 76.0254 0.505859 72.4121C0.505859 68.4082 3.69596 66.4062 10.0762 66.4062ZM103.635 34.6191C103.635 35.5632 103.277 36.263 102.561 36.7188C96.0829 36.7188 91.135 38.5742 87.717 42.2852C84.5269 45.8008 82.9319 49.7559 82.9319 54.1504C82.9319 58.5124 83.8922 61.9954 85.8127 64.5996C87.7659 67.2038 90.1422 68.5059 92.9416 68.5059C95.7411 68.5059 98.4429 67.041 101.047 64.1113C98.6057 62.5814 96.7177 60.5632 95.383 58.0566C94.081 55.5501 93.4299 53.0111 93.4299 50.4395C93.4299 47.8353 94.2112 45.7357 95.7737 44.1406C97.3362 42.513 99.5985 41.6992 102.561 41.6992C105.523 41.6992 107.671 42.4967 109.006 44.0918C110.373 45.6868 111.057 47.64 111.057 49.9512C111.057 54.7038 109.543 58.9193 106.516 62.5977C107.33 62.9232 108.03 63.0859 108.615 63.0859C109.201 63.0859 109.804 62.9557 110.422 62.6953C111.073 62.4023 111.806 61.9141 112.619 61.2305C113.433 60.5143 114.149 59.847 114.768 59.2285C115.386 58.61 116.281 57.6823 117.453 56.4453C118.625 55.2083 119.618 54.1992 120.432 53.418V58.7891C117.73 61.6536 115.533 63.6882 113.84 64.8926C112.18 66.097 110.536 66.6992 108.908 66.6992C107.313 66.6992 105.849 66.4714 104.514 66.0156C102.007 69.0755 99.0289 71.582 95.5784 73.5352C92.1604 75.4557 88.6122 76.416 84.9338 76.416C79.6604 76.416 75.9006 73.9258 73.6545 68.9453C72.385 66.1458 71.7502 63.0046 71.7502 59.5215C71.7502 51.6113 74.5497 45.3776 80.1487 40.8203C85.7802 36.263 93.2509 33.9844 102.561 33.9844C103.212 33.9844 103.57 34.196 103.635 34.6191ZM106.418 50.8789C106.418 47.8841 105.084 46.3867 102.414 46.3867C99.7776 46.3867 98.4592 47.9655 98.4592 51.123C98.4592 52.7832 98.8987 54.5085 99.7776 56.2988C100.689 58.0566 101.91 59.4564 103.44 60.498C104.091 59.4238 104.742 57.9427 105.393 56.0547C106.076 54.1341 106.418 52.4089 106.418 50.8789ZM130.934 74.6582C129.827 75.1139 128.607 75.5208 127.272 75.8789C125.97 76.237 124.652 76.416 123.317 76.416C122.015 76.416 120.631 76.2858 119.166 76.0254C117.734 75.765 116.318 75.3418 114.918 74.7559C111.728 73.4538 110.133 71.2077 110.133 68.0176C110.133 66.748 110.605 65.2995 111.549 63.6719C112.493 62.0443 113.519 60.612 114.625 59.375C115.765 58.138 117.099 56.722 118.629 55.127C120.159 53.5319 121.201 52.3926 121.754 51.709C120.875 49.528 120.436 47.1517 120.436 44.5801C120.436 40.7715 121.608 37.6302 123.952 35.1562C126.295 32.6497 129.795 31.3965 134.45 31.3965C136.5 31.3965 137.526 31.9661 137.526 33.1055C137.526 35.1237 136.647 36.7025 134.889 37.8418C133.164 38.9486 131.308 39.502 129.323 39.502C130.43 42.8548 132.301 45.8659 134.938 48.5352C135.915 49.5768 136.859 50.5697 137.77 51.5137C139.886 53.6621 140.944 55.5176 140.944 57.0801C140.944 59.4889 139.805 62.2559 137.526 65.3809L152.028 53.5156V58.8867C151.637 59.2122 150.661 60.0586 149.098 61.4258C147.568 62.793 146.445 63.7858 145.729 64.4043C145.045 64.9902 143.906 65.918 142.311 67.1875C140.749 68.457 139.479 69.4336 138.502 70.1172C137.558 70.7682 136.338 71.5658 134.84 72.5098C133.343 73.4538 132.041 74.1699 130.934 74.6582ZM123.854 55.5176C123.594 55.8105 122.601 56.7383 120.875 58.3008C117.034 61.7188 115.114 64.3555 115.114 66.2109C115.114 68.0339 116.058 69.5801 117.946 70.8496C119.834 72.0866 121.868 72.7051 124.049 72.7051C126.23 72.7051 127.988 72.347 129.323 71.6309C130.657 70.8822 131.325 69.9382 131.325 68.7988C131.325 67.6595 131.178 66.6341 130.885 65.7227C130.592 64.8112 130.12 63.8672 129.469 62.8906C128.851 61.8815 128.297 61.0677 127.809 60.4492C127.353 59.7982 126.653 58.9193 125.709 57.8125C124.765 56.6732 124.147 55.9082 123.854 55.5176ZM153.253 39.1113C152.797 39.1113 152.406 39.1113 152.081 39.1113C151.788 39.1113 151.495 39.1113 151.202 39.1113C150.909 39.0788 150.681 39.0462 150.518 39.0137C150.356 38.9811 150.16 38.9323 149.932 38.8672C149.737 38.8021 149.574 38.7207 149.444 38.623C149.314 38.5254 149.184 38.4115 149.053 38.2812C148.826 38.0208 148.712 37.679 148.712 37.2559C148.712 36.8001 148.728 36.5072 148.76 36.377C148.891 36.0514 149.477 35.8236 150.518 35.6934L154.62 35.3027C156.15 30.2246 157.224 27.002 157.842 25.6348C158.461 24.235 159.047 22.9818 159.6 21.875C160.186 20.7682 160.74 19.9056 161.26 19.2871C161.814 18.6686 162.449 18.0013 163.165 17.2852C163.881 16.569 164.63 16.0319 165.411 15.6738C167.266 14.8275 169.171 14.4043 171.124 14.4043L171.319 14.5996C171.319 14.7298 170.896 15.9993 170.05 18.4082C167.25 26.416 165.378 32.0475 164.434 35.3027L179.327 34.6191L178.253 36.377C177.439 37.8743 172.572 38.623 163.653 38.623C163.62 38.623 163.116 40.4297 162.139 44.043C159.21 54.8177 157.745 61.3444 157.745 63.623C157.745 65.9342 158.005 67.2689 158.526 67.627C159.047 67.9525 159.584 68.1152 160.137 68.1152C161.895 68.1152 168.096 63.0697 178.741 52.9785V58.4961C177.634 59.5052 176.104 60.9212 174.151 62.7441C172.198 64.5671 170.652 65.9993 169.512 67.041C168.406 68.0501 167.006 69.2383 165.313 70.6055C163.653 71.9727 162.237 73.0143 161.065 73.7305C158.07 75.5208 155.434 76.416 153.155 76.416C149.281 76.416 147.344 73.7142 147.344 68.3105C147.344 65.3483 147.8 61.8652 148.712 57.8613C149.656 53.8249 150.453 50.5371 151.104 47.998C151.755 45.4264 152.471 42.4642 153.253 39.1113ZM183.335 65.2832C183.335 67.4316 183.905 68.5059 185.044 68.5059C185.76 68.5059 188.006 66.6504 191.782 62.9395C195.591 59.196 198.618 56.0872 200.864 53.6133V59.082C194.451 65.3971 190.155 69.4661 187.974 71.2891C184.002 74.5768 180.601 76.2858 177.769 76.416C176.336 76.416 175.262 75.7812 174.546 74.5117C173.83 73.2096 173.472 71.5495 173.472 69.5312C173.472 67.513 174.383 62.7767 176.206 55.3223C178.029 47.8678 179.233 43.3594 179.819 41.7969C180.438 40.2344 180.942 39.1439 181.333 38.5254C181.724 37.9069 182.212 37.4186 182.798 37.0605C183.384 36.7025 183.888 36.4258 184.311 36.2305C184.767 36.0026 185.451 35.8398 186.362 35.7422C187.632 35.6445 189.194 35.5957 191.05 35.5957C185.907 52.0671 183.335 61.9629 183.335 65.2832ZM191.733 22.6074C189.422 22.6074 188.267 21.4355 188.267 19.0918C188.267 17.4642 188.869 15.9017 190.073 14.4043C191.31 12.8743 192.759 12.1094 194.419 12.1094C196.079 12.1094 197.316 12.4349 198.13 13.0859C198.944 13.737 199.351 14.7298 199.351 16.0645C199.351 17.3665 198.569 18.7826 197.007 20.3125C195.477 21.8424 193.719 22.6074 191.733 22.6074ZM221.474 8.69141C219.976 8.69141 218.56 10.0911 217.226 12.8906C215.696 16.2109 214.54 19.2708 213.759 22.0703C213.01 24.8372 212.424 27.0182 212.001 28.6133C211.578 30.1758 211.106 32.194 210.585 34.668C209.153 41.1784 208.42 44.6126 208.388 44.9707C208.355 45.3288 208.307 45.6217 208.241 45.8496C208.209 46.0449 208.176 46.224 208.144 46.3867C208.795 45.3451 210.081 43.4082 212.001 40.5762C213.954 37.7116 215.501 35.3516 216.64 33.4961C217.812 31.6406 219.114 29.4271 220.546 26.8555C223.411 21.7773 224.843 17.4805 224.843 13.9648C224.843 10.4492 223.72 8.69141 221.474 8.69141ZM222.841 53.5156V58.9844C216.851 65.3971 212.473 68.6035 209.706 68.6035C206.972 68.6035 205.23 67.5944 204.482 65.5762C204.482 66.097 203.7 70.2799 202.138 78.125C200.575 85.9701 199.648 90.3971 199.355 91.4062H191.152C192.454 81.7708 194.732 69.7754 197.988 55.4199C201.243 41.0319 204.433 28.1901 207.558 16.8945C208.437 13.737 210.829 10.7096 214.736 7.8125C218.674 4.88281 222.581 3.41797 226.454 3.41797C229.254 3.41797 230.767 5.0944 230.995 8.44727C231.028 8.93555 231.044 9.55404 231.044 10.3027C231.044 14.1764 230.165 18.2617 228.407 22.5586C226.682 26.8229 224.583 30.7292 222.109 34.2773C219.635 37.793 217.161 41.0807 214.687 44.1406C212.213 47.168 210.097 49.821 208.339 52.0996C206.614 54.3783 205.751 56.1686 205.751 57.4707C205.751 58.7402 206.256 60.0423 207.265 61.377C208.274 62.7116 209.348 63.3789 210.488 63.3789C211.627 63.3789 213.613 62.1745 216.445 59.7656C219.309 57.3242 221.441 55.2409 222.841 53.5156ZM241.4 65.4785C233.815 72.7702 227.419 76.416 222.21 76.416C220.192 76.416 218.727 75.6348 217.816 74.0723C216.937 72.5098 216.497 70.4915 216.497 68.0176C216.497 63.8835 219.427 53.4831 225.287 36.8164C225.417 36.0026 228.053 35.5957 233.197 35.5957H234.906C234.906 35.6608 234.238 37.793 232.904 41.9922C228.9 54.5898 226.898 62.0605 226.898 64.4043C226.898 66.748 227.988 67.9199 230.169 67.9199C232.025 67.9199 234.32 67.1224 237.054 65.5273C239.821 63.9323 241.432 62.6628 241.888 61.7188L247.21 41.4062C247.927 38.6393 248.903 36.9466 250.14 36.3281C251.084 35.8398 252.598 35.5957 254.681 35.5957H258.001C257.253 37.7116 256.211 41.1947 254.876 46.0449C253.574 50.8952 252.647 54.3294 252.093 56.3477C250.889 60.7422 250.059 63.8509 249.603 65.6738L249.212 66.9922C256.634 60.8073 261.794 56.3151 264.691 53.5156V58.9844L248.382 73.6816V73.877C247.634 78.0111 246.445 81.722 244.818 85.0098C243.223 88.2975 241.416 90.918 239.398 92.8711C235.264 96.875 231.032 98.877 226.703 98.877C224.456 98.877 222.357 98.1608 220.404 96.7285C218.451 95.2962 217.474 93.6035 217.474 91.6504C217.474 89.6973 218.125 88.0371 219.427 86.6699C220.762 85.3353 222.65 83.9844 225.091 82.6172L239.789 73.291L241.4 65.4785ZM239.203 79.2969L230.169 85.0098C229.095 85.6608 228.233 86.2142 227.581 86.6699C226.963 87.1582 226.345 87.8418 225.726 88.7207C225.108 89.5996 224.798 90.5273 224.798 91.5039C224.798 94.1732 226.003 95.5078 228.412 95.5078C231.309 95.5078 233.652 94.0267 235.443 91.0645C237.233 88.1022 238.486 84.1797 239.203 79.2969Z" fill="#005A9C"/>
</svg>
